<svg width="286" height="160" fill="none" xmlns="http://www.w3.org/2000/svg"><g clip-path="url(#a)"><mask id="c" style="mask-type:alpha" maskUnits="userSpaceOnUse" x="0" y="17" width="285" height="125"><path fill="url(#b)" d="M0 17.1H284.9V141.2H0z"/></mask><g mask="url(#c)"><path d="m249.2 33.3-16-5.3-66.4.2-11.5-4.2-9.7 4h-41.5l-16.5-7.6H63.7L60 28H39.2L0 90.4l43.6 49.2h197.8L285 90.4l-35.8-57Zm-8.8 104H44.6L2.8 90.1l37.6-59.9h21l3.7-7.5h22l16.5 7.5 42.4.1 9.4-3.9 11 4 66.4-.2 15 5 34.4 55-41.8 47.1Z" fill="url(#d)"/></g><path d="m282.3 90.1-41.9 47.2H44.6L2.8 90.1l37.6-59.9h21l3.7-7.5h22l16.5 7.5 42.4.1 9.4-3.9 11 4 66.4-.2 15 5 34.5 55Z" fill="url(#e)"/><path d="m282.2 90.1-34.4-54.9-15-5-66.4.2-11-4-9.4 4-42.4-.2L87 22.7h-22l-3.7 7.5h-21l-37.6 60h25.1l19 14h30.7l4.6-14h20l4.5-20h4.6l6.1-2.7-1.3 13.5 17 9.1h149.1Z" fill="#4A357D"/><path d="M16.1 82.8h21.4l3.7-7.1h-9.5l6.8-11.8 11-4 3.5-6.7L42.5 57 48 47l-3.2-5h14l2.3-4.5H44.5L16 82.8ZM69.7 30 57.3 55.4l15 9 6 3-9 4.9L63 88.8H52.8l10.9-25.1-8.1-4.9-15.3 31.3 9 6.8h23L83.7 62 68 53.5 76.5 34H84l5 2.2-7.2 3.3L77 52.4l8.4 4.5L93 33.5 85.5 30H69.7ZM97.7 37.6l-13 45.2h11.6l4.6-20h8.8l11-4.8 2.1-16.6-8.5-3.8H97.7Zm14.9 9.6-1.8 9.9h-8.6l3.4-15h7.9l5.8 2.4-6.7 2.7ZM127.7 37.6l-3.8 39.3 11 5.9h21.5l-2.9-41.4-9.2-3.8h-16.6Zm16.8 13.9.2 24.2h-9.5l1.3-33.6h7.8l6 2.4-5.8 7ZM159.9 41.4l4.5 41.4h11.5l-3.3-20h9l4.2 20h11.6l-5.2-19.1-6.8-2.9 5.2-2.8-5.5-20.4h-16.7l-8.5 3.8Zm20.4 15.7h-8.6l-1.6-9.8-6.8-2.8 5.9-2.4h7.9l3.2 15ZM189.4 42.1h7.7L211 82.8h11.6L208.3 47l-8.1-5H214l-2-4.4h-24l1.4 4.5ZM252.7 57l-9.8-15.6-11.3-3.8h-16.7l8.3 17.8 23.7 9 6.4 11.3h-9.5l-6.3-12-12.7-4.9 8.4 18 14.3 6h21.4L256 62l-23.7-8.5-3.3-6.4-8.7-5h14l5.8 10.3 12.7 4.5Z" fill="#fff"/><path d="M155.8 32.2a27.7 27.7 0 0 1-4.1 3.2 35 35 0 0 1 4.6 3.5c1.3-1.3 2.7-2.5 4.1-3.5-1.7-1-3.2-2-4.6-3.2Z" fill="#E2D45C"/><path d="m29.2 77.2 7-12.2-7.7.9-9.7 15.4h17.8l2.2-4.1h-9.6Z" fill="url(#f)"/><path d="m79 61.2-8.2.5 2.3 1.4 7.4 3.8 1.4-4.2-2.8-1.5Zm-8.5 12.1-6.5 17H50.6l11.2-26-2.7-1.6-4 .3-13 26.7 7.7 5.7h21.4L80.1 68l-9.6 5.2Z" fill="url(#g)"/><path d="m113.7 59.5-4.3 1.8h-9.7l-4.6 20h-8.4l6-21 21-.8Z" fill="url(#h)"/><path d="M154.8 81.3h-19.5l-9.8-5.3 1.6-16.9 7.3-.1-.7 18.2h12.5l-.2-18.3a1480.4 1480.4 0 0 1 7.3 0l1.5 22.4Z" fill="url(#i)"/><path d="M195.4 81.3H187l-4.3-20H171l3.3 20h-8.5L163.3 59c7.2 0 14.4.2 21.4.5L182 61l9 3.8 4.5 16.5Z" fill="url(#j)"/><path d="m212.1 60.7-7.2-.4 7 21h8.4l-8.2-20.6Z" fill="url(#k)"/><path d="m255.5 64.2-7.5-.7 7.9 13.7h-13l-6.4-12.3-8.2-3.1h-.5l6.5 14 13.5 5.5h18.4l-10.7-17Z" fill="url(#l)"/><path fill-rule="evenodd" clip-rule="evenodd" d="M118.1 116v-3l-8.4 3v3.2l8.4 3.2v-3.1l-4.3-1.6 4.3-1.7ZM167 122.2v-3l4.2-1.7-4.3-1.6v-3l8.4 3v3.2l-8.4 3.1Zm-3.7-13.7-5 15.9h3l5-15.9h-3Z" fill="#996DFF"/><path fill-rule="evenodd" clip-rule="evenodd" d="M130.5 112.4c.8 1 1.3 2.1 1.2 3.4v6.7h-3v-6.1c.1-.7-.1-1.4-.5-2a2 2 0 0 0-1.7-.6c-1.8 0-2.7 1.3-2.7 3.8v5h-3v-11.2h3v1c1-.9 2.2-1.4 3.5-1.3 1.2 0 2.4.4 3.2 1.3ZM135.5 106.8v15.9h2.9v-15.9h-3ZM155 122.1h-2.4l-2.4-6.5-2.5 6.5h-2.4l-4.1-11.1h3.1l2.3 6.6 2.4-6.6h2.3l2.4 6.6 2.3-6.6h3.1L155 122Z" fill="#fff"/><path d="M12 26C15.3 17.8 22 11.5 32 7a94.6 94.6 0 0 1 35.7-7C97-.8 132.1 6.7 167 21l7.4 3.2H171l-4.5-2C95-7 26.4-5.2 13.3 26.6c-3.8 9.2-2.6 19.9 2.9 31.2 13.3 27.7 51.8 59 102.5 80 4.9 2 9.8 3.8 14.6 5.6a237 237 0 0 0 84 15.2c14-.4 25.9-2.7 35.2-6.9a35 35 0 0 0 19.3-18c2.8-7 2.8-14.8.3-23l1-1.3c3 9.1 3 17.4 0 24.8-3.4 8-10 14.3-20 18.8a94.6 94.6 0 0 1-40.3 7.1c-25 0-54.2-5.8-83.5-16.7l-11.2-4.4c-34.8-14.4-65-34-85-55.3a103.8 103.8 0 0 1-20.3-30.2 36.4 36.4 0 0 1-.8-27.5Z" fill="url(#m)"/><path d="M12 26C15.3 17.8 22 11.5 32 7a94.6 94.6 0 0 1 35.7-7C97-.8 132.1 6.7 167 21l7.4 3.2H171l-4.5-2C95-7 26.4-5.2 13.3 26.6c-3.8 9.2-2.6 19.9 2.9 31.2 13.3 27.7 51.8 59 102.5 80 4.9 2 9.8 3.8 14.6 5.6a237 237 0 0 0 84 15.2c14-.4 25.9-2.7 35.2-6.9a35 35 0 0 0 19.3-18c2.8-7 2.8-14.8.3-23l1-1.3c3 9.1 3 17.4 0 24.8-3.4 8-10 14.3-20 18.8a94.6 94.6 0 0 1-40.3 7.1c-25 0-54.2-5.8-83.5-16.7l-11.2-4.4c-34.8-14.4-65-34-85-55.3a103.8 103.8 0 0 1-20.3-30.2 36.4 36.4 0 0 1-.8-27.5Z" fill="url(#n)"/><path d="M12 26C15.3 17.8 22 11.5 32 7a94.6 94.6 0 0 1 35.7-7C97-.8 132.1 6.7 167 21l7.4 3.2H171l-4.5-2C95-7 26.4-5.2 13.3 26.6c-3.8 9.2-2.6 19.9 2.9 31.2 13.3 27.7 51.8 59 102.5 80 4.9 2 9.8 3.8 14.6 5.6a237 237 0 0 0 84 15.2c14-.4 25.9-2.7 35.2-6.9a35 35 0 0 0 19.3-18c2.8-7 2.8-14.8.3-23l1-1.3c3 9.1 3 17.4 0 24.8-3.4 8-10 14.3-20 18.8a94.6 94.6 0 0 1-40.3 7.1c-25 0-54.2-5.8-83.5-16.7l-11.2-4.4c-34.8-14.4-65-34-85-55.3a103.8 103.8 0 0 1-20.3-30.2 36.4 36.4 0 0 1-.8-27.5Z" fill="url(#o)"/><path d="M12 26C15.3 17.8 22 11.5 32 7a94.6 94.6 0 0 1 35.7-7C97-.8 132.1 6.7 167 21l7.4 3.2H171l-4.5-2C95-7 26.4-5.2 13.3 26.6c-3.8 9.2-2.6 19.9 2.9 31.2 13.3 27.7 51.8 59 102.5 80 4.9 2 9.8 3.8 14.6 5.6a237 237 0 0 0 84 15.2c14-.4 25.9-2.7 35.2-6.9a35 35 0 0 0 19.3-18c2.8-7 2.8-14.8.3-23l1-1.3c3 9.1 3 17.4 0 24.8-3.4 8-10 14.3-20 18.8a94.6 94.6 0 0 1-40.3 7.1c-25 0-54.2-5.8-83.5-16.7l-11.2-4.4c-34.8-14.4-65-34-85-55.3a103.8 103.8 0 0 1-20.3-30.2 36.4 36.4 0 0 1-.8-27.5Z" fill="url(#p)"/><path d="M273 26c-3.3-8.1-10-14.4-20-18.9a94.6 94.6 0 0 0-35.7-7c-29.2-.9-64.4 6.6-99.2 21l-7.4 3.2h3.5l4.5-2c71.2-29.4 139.9-27.6 153 4.2 3.9 9.2 2.6 19.9-2.8 31.2-13.4 27.7-51.9 59-102.5 80l-14.7 5.6a237 237 0 0 1-84 15.2c-14-.4-25.9-2.7-35.2-6.9a35 35 0 0 1-19.2-18c-2.9-7-2.9-14.8-.4-23l-1-1.3c-3 9.1-3 17.4 0 24.8 3.4 8 10.1 14.3 20 18.8a94.6 94.6 0 0 0 40.3 7.1c25.1 0 54.3-5.8 83.6-16.7l11.1-4.4c34.8-14.4 65-34 85-55.3a103.8 103.8 0 0 0 20.3-30.2 36.4 36.4 0 0 0 .9-27.5Z" fill="url(#q)"/><path d="M273 26c-3.3-8.1-10-14.4-20-18.9a94.6 94.6 0 0 0-35.7-7c-29.2-.9-64.4 6.6-99.2 21l-7.4 3.2h3.5l4.5-2c71.2-29.4 139.9-27.6 153 4.2 3.9 9.2 2.6 19.9-2.8 31.2-13.4 27.7-51.9 59-102.5 80l-14.7 5.6a237 237 0 0 1-84 15.2c-14-.4-25.9-2.7-35.2-6.9a35 35 0 0 1-19.2-18c-2.9-7-2.9-14.8-.4-23l-1-1.3c-3 9.1-3 17.4 0 24.8 3.4 8 10.1 14.3 20 18.8a94.6 94.6 0 0 0 40.3 7.1c25.1 0 54.3-5.8 83.6-16.7l11.1-4.4c34.8-14.4 65-34 85-55.3a103.8 103.8 0 0 0 20.3-30.2 36.4 36.4 0 0 0 .9-27.5Z" fill="url(#r)"/><path d="M273 26c-3.3-8.1-10-14.4-20-18.9a94.6 94.6 0 0 0-35.7-7c-29.2-.9-64.4 6.6-99.2 21l-7.4 3.2h3.5l4.5-2c71.2-29.4 139.9-27.6 153 4.2 3.9 9.2 2.6 19.9-2.8 31.2-13.4 27.7-51.9 59-102.5 80l-14.7 5.6a237 237 0 0 1-84 15.2c-14-.4-25.9-2.7-35.2-6.9a35 35 0 0 1-19.2-18c-2.9-7-2.9-14.8-.4-23l-1-1.3c-3 9.1-3 17.4 0 24.8 3.4 8 10.1 14.3 20 18.8a94.6 94.6 0 0 0 40.3 7.1c25.1 0 54.3-5.8 83.6-16.7l11.1-4.4c34.8-14.4 65-34 85-55.3a103.8 103.8 0 0 0 20.3-30.2 36.4 36.4 0 0 0 .9-27.5Z" fill="url(#s)"/></g><defs><linearGradient id="b" x1="142.5" y1="74.8" x2="142.5" y2="135.5" gradientUnits="userSpaceOnUse"><stop stop-color="#D9D9D9"/><stop offset="1" stop-color="#D9D9D9" stop-opacity="0"/></linearGradient><linearGradient id="d" x1="0" y1="80" x2="285" y2="80" gradientUnits="userSpaceOnUse"><stop stop-color="#996DFF"/><stop offset=".5" stop-color="#35E8B3"/><stop offset="1" stop-color="#E2D45C"/></linearGradient><linearGradient id="e" x1="142.5" y1="91.9" x2="142.5" y2="136.2" gradientUnits="userSpaceOnUse"><stop stop-color="#28203E"/><stop offset="1" stop-color="#121214" stop-opacity="0"/></linearGradient><linearGradient id="f" x1="28.8" y1="61" x2="28.8" y2="78.5" gradientUnits="userSpaceOnUse"><stop stop-color="#A9A9AD"/><stop offset="1" stop-color="#A9A9AD" stop-opacity="0"/></linearGradient><linearGradient id="g" x1="62" y1="61" x2="62" y2="78.5" gradientUnits="userSpaceOnUse"><stop stop-color="#A9A9AD"/><stop offset="1" stop-color="#A9A9AD" stop-opacity="0"/></linearGradient><linearGradient id="h" x1="100.2" y1="61" x2="100.2" y2="78.5" gradientUnits="userSpaceOnUse"><stop stop-color="#A9A9AD"/><stop offset="1" stop-color="#A9A9AD" stop-opacity="0"/></linearGradient><linearGradient id="i" x1="140.2" y1="61" x2="140.2" y2="78.5" gradientUnits="userSpaceOnUse"><stop stop-color="#A9A9AD"/><stop offset="1" stop-color="#A9A9AD" stop-opacity="0"/></linearGradient><linearGradient id="j" x1="179.4" y1="61" x2="179.4" y2="78.5" gradientUnits="userSpaceOnUse"><stop stop-color="#A9A9AD"/><stop offset="1" stop-color="#A9A9AD" stop-opacity="0"/></linearGradient><linearGradient id="k" x1="212.6" y1="61" x2="212.6" y2="78.5" gradientUnits="userSpaceOnUse"><stop stop-color="#A9A9AD"/><stop offset="1" stop-color="#A9A9AD" stop-opacity="0"/></linearGradient><linearGradient id="l" x1="247" y1="61" x2="247" y2="78.5" gradientUnits="userSpaceOnUse"><stop stop-color="#A9A9AD"/><stop offset="1" stop-color="#A9A9AD" stop-opacity="0"/></linearGradient><linearGradient id="m" x1="258.6" y1="114.5" x2="66.1" y2="115.5" gradientUnits="userSpaceOnUse"><stop stop-color="#996DFF"/><stop offset=".5" stop-color="#35E8B3"/><stop offset="1" stop-color="#E2D45C"/></linearGradient><linearGradient id="q" x1="149.8" y1="17.7" x2="192.9" y2="126.8" gradientUnits="userSpaceOnUse"><stop stop-color="#996DFF"/><stop offset=".5" stop-color="#35E8B3"/><stop offset="1" stop-color="#E2D45C"/></linearGradient><radialGradient id="n" cx="0" cy="0" r="1" gradientUnits="userSpaceOnUse" gradientTransform="rotate(15.8 -457.8 581.6) scale(129.411 214.897)"><stop stop-color="#171226"/><stop offset="1" stop-color="#171226" stop-opacity="0"/></radialGradient><radialGradient id="o" cx="0" cy="0" r="1" gradientUnits="userSpaceOnUse" gradientTransform="rotate(-157 89.5 -5.2) scale(29.1264 48.3668)"><stop stop-color="#261945"/><stop offset="1" stop-color="#261945" stop-opacity="0"/></radialGradient><radialGradient id="p" cx="0" cy="0" r="1" gradientUnits="userSpaceOnUse" gradientTransform="rotate(76.7 69 226.4) scale(33.0025 54.8033)"><stop stop-color="#191326"/><stop offset="1" stop-color="#191326" stop-opacity="0"/></radialGradient><radialGradient id="r" cx="0" cy="0" r="1" gradientUnits="userSpaceOnUse" gradientTransform="rotate(-19.4 134.4 -303) scale(65.8413 109.335)"><stop stop-color="#171225"/><stop offset="1" stop-color="#171225" stop-opacity="0"/></radialGradient><radialGradient id="s" cx="0" cy="0" r="1" gradientUnits="userSpaceOnUse" gradientTransform="rotate(67.5 -75.5 63.4) scale(44.2891 73.5456)"><stop stop-color="#191327"/><stop offset="1" stop-color="#191327" stop-opacity="0"/></radialGradient><clipPath id="a"><path fill="#fff" d="M0 0H285V160H0z"/></clipPath></defs></svg>